<svg width="26" height="24" viewBox="0 0 26 24" fill="none" xmlns="http://www.w3.org/2000/svg">
<rect width="26" height="24" rx="2" fill="#3DFF87"/>
<path d="M4.83794 19.936C4.35794 19.936 3.96327 19.7813 3.65394 19.472C3.35527 19.1733 3.20594 18.784 3.20594 18.304V5.536C3.20594 5.056 3.35527 4.66667 3.65394 4.368C3.96327 4.05867 4.35794 3.904 4.83794 3.904H7.55794V5.632H5.58994C5.30194 5.632 5.15794 5.792 5.15794 6.112V17.728C5.15794 18.048 5.30194 18.208 5.58994 18.208H7.55794V19.936H4.83794ZM11.9643 16.16C10.9403 16.16 10.1136 15.7813 9.48431 15.024C8.85498 14.256 8.54031 13.136 8.54031 11.664C8.54031 10.1813 8.86031 9.056 9.50031 8.288C10.151 7.50933 11.031 7.12 12.1403 7.12C12.759 7.12 13.2656 7.232 13.6603 7.456C14.055 7.66933 14.3856 7.99467 14.6523 8.432H14.7643C14.807 8.25067 14.871 8.05333 14.9563 7.84C15.0523 7.616 15.1643 7.424 15.2923 7.264H17.2603C17.143 7.60533 17.0203 8.10133 16.8923 8.752C16.7643 9.40267 16.7003 10.0853 16.7003 10.8V13.232C16.7003 13.5947 16.7643 13.84 16.8923 13.968C17.031 14.096 17.1856 14.16 17.3563 14.16C17.431 14.16 17.5163 14.1547 17.6123 14.144C17.7083 14.1227 17.7776 14.1013 17.8203 14.08V15.952C17.7456 16.0053 17.591 16.0533 17.3563 16.096C17.1216 16.1387 16.919 16.16 16.7483 16.16C16.215 16.16 15.783 16.064 15.4523 15.872C15.1216 15.68 14.8656 15.3387 14.6843 14.848H14.5243C14.279 15.2107 13.9536 15.52 13.5483 15.776C13.143 16.032 12.615 16.16 11.9643 16.16ZM12.6843 14.256C13.3456 14.256 13.8043 14.0587 14.0603 13.664C14.3163 13.2587 14.455 12.6187 14.4763 11.744V11.648C14.4763 10.7947 14.343 10.144 14.0763 9.696C13.8203 9.248 13.3456 9.024 12.6523 9.024C12.087 9.024 11.6656 9.25333 11.3883 9.712C11.111 10.16 10.9723 10.816 10.9723 11.68C10.9723 13.3973 11.543 14.256 12.6843 14.256ZM18.4357 19.936V18.208H20.4037C20.6917 18.208 20.8357 18.048 20.8357 17.728V6.112C20.8357 5.792 20.6917 5.632 20.4037 5.632H18.4357V3.904H21.1557C21.6357 3.904 22.025 4.05867 22.3237 4.368C22.633 4.66667 22.7877 5.056 22.7877 5.536V18.304C22.7877 18.784 22.633 19.1733 22.3237 19.472C22.025 19.7813 21.6357 19.936 21.1557 19.936H18.4357Z" fill="#151B21"/>
</svg>
